<?xml version="1.0" encoding="UTF-8" standalone="no"?>
<!-- Created with Inkscape (http://www.inkscape.org/) -->
<svg xmlns:dc="http://purl.org/dc/elements/1.1/" xmlns:cc="http://creativecommons.org/ns#" xmlns:rdf="http://www.w3.org/1999/02/22-rdf-syntax-ns#" xmlns:svg="http://www.w3.org/2000/svg" xmlns="http://www.w3.org/2000/svg" xmlns:sodipodi="http://sodipodi.sourceforge.net/DTD/sodipodi-0.dtd" xmlns:inkscape="http://www.inkscape.org/namespaces/inkscape" id="svg2" version="1.1" inkscape:version="0.48+devel r12701" width="387.38269" height="526.11871" viewBox="0 0 387.38269 526.11871" sodipodi:docname="l.svg">

  <metadata id="metadata8">
    <rdf:RDF>
      <cc:Work rdf:about="">
        <dc:format>image/svg+xml</dc:format>
        <dc:type rdf:resource="http://purl.org/dc/dcmitype/StillImage"/>
        <dc:title>ASL letter</dc:title>
        <dc:date>11/11/2013</dc:date>
        <dc:creator>
          <cc:Agent>
            <dc:title>edited by Paul Sherman</dc:title>
          </cc:Agent>
        </dc:creator>
        <dc:rights>
          <cc:Agent>
            <dc:title>PD</dc:title>
          </cc:Agent>
        </dc:rights>
        <dc:publisher>
          <cc:Agent>
            <dc:title>WPClipart</dc:title>
          </cc:Agent>
        </dc:publisher>
        <dc:subject>
          <rdf:Bag>
            <rdf:li>sign</rdf:li>
            <rdf:li>language</rdf:li>
            <rdf:li>letter</rdf:li>
            <rdf:li>american</rdf:li>
          </rdf:Bag>
        </dc:subject>
        <cc:license rdf:resource="http://creativecommons.org/publicdomain/zero/1.0/"/>
      </cc:Work>
      <cc:License rdf:about="http://creativecommons.org/publicdomain/zero/1.0/">
        <cc:permits rdf:resource="http://creativecommons.org/ns#Reproduction"/>
        <cc:permits rdf:resource="http://creativecommons.org/ns#Distribution"/>
        <cc:permits rdf:resource="http://creativecommons.org/ns#DerivativeWorks"/>
      </cc:License>
    </rdf:RDF>
  </metadata>
  <defs id="defs6"/>
  <sodipodi:namedview pagecolor="#ffffff" bordercolor="#666666" borderopacity="1" objecttolerance="10" gridtolerance="10" guidetolerance="10" inkscape:pageopacity="0" inkscape:pageshadow="2" inkscape:window-width="1478" inkscape:window-height="987" id="namedview4" showgrid="false" fit-margin-top="12" fit-margin-left="12" fit-margin-right="12" fit-margin-bottom="12" inkscape:zoom="0.8574923" inkscape:cx="242.00816" inkscape:cy="258.47904" inkscape:window-x="0" inkscape:window-y="0" inkscape:window-maximized="0" inkscape:current-layer="svg2"/>
  <path style="fill:#000000" d="m 184.16791,512.63139 c -3.00198,-2.45241 -6.62897,-31.92521 -5.50892,-44.76526 0.83364,-9.55664 7.15603,-37.48139 13.12381,-57.96535 1.38894,-4.76746 2.37008,-8.82339 2.18029,-9.01318 -0.18978,-0.18978 -5.66413,1.37468 -12.16522,3.47658 -14.99547,4.84827 -28.40778,5.96988 -36.93759,3.08892 -8.42619,-2.84596 -17.4098,-9.73004 -21.86657,-16.75622 -4.12758,-6.50718 -9.89862,-23.43868 -10.27431,-30.1435 -0.21935,-3.91468 0.19388,-4.48195 4.47386,-6.14157 2.59355,-1.00568 5.0641,-1.47995 5.49011,-1.05393 0.42603,0.42601 2.12161,6.83527 3.76799,14.24278 1.64637,7.40753 4.0069,14.87448 5.24561,16.59323 3.06452,4.25211 10.38107,8.11954 20.35484,10.75926 8.16007,2.1597 8.54185,2.14963 19.375,-0.51122 12.52609,-3.07666 42.64948,-17.39663 58.02329,-27.58293 5.35222,-3.54626 14.32554,-11.96761 25.74311,-18.98111 14.48765,-8.89935 6.70845,-3.78757 24.08979,-10.88898 1.951,-0.79711 4.70947,-2.46113 14.25689,-5.04168 11.96981,-3.23529 17.07334,-4.30659 20.70061,-6.22465 1.50168,-0.79408 11.44611,-5.882 17.68109,-9.17654 14.44701,-7.63377 11.86199,-5.69708 20.61863,-8.26961 3.33113,-0.97862 6.9875,-4.75754 7.8125,-5.58254 4.72144,-4.72144 -1.1428,-11.44576 -18.56105,-21.28334 -9.49834,-5.36451 -10.85223,-5.76235 -22.42936,-6.59097 -13.54004,-0.96912 -19.11015,0.14821 -25.71139,5.15752 -3.83418,2.90955 -54.74765,20.46679 -59.35075,20.46679 -2.54675,0 -3.37572,3.02875 -1.19745,4.375 1.96579,1.21492 -0.0829,5.28727 -2.85249,10.71605 -3.62394,7.1035 -4.4141,7.61619 -0.18914,27.4335 0.6793,3.18632 1.54463,2.0876 -3.29252,-0.11635 -2.40771,-1.09703 0.24828,0.9957 -4.58729,-7.42506 l -0.95185,-11.65399 1.67498,-11.78128 3.23102,-13.64851 -6.34954,-8.63717 c -3.49223,-4.75045 1.60872,-7.37112 0.80349,-8.92134 -2.73249,-5.26056 -3.16426,2.14809 2.62434,-38.25746 3.25747,-22.73773 1.36872,-28.53518 0.1784,-28.53518 -0.26849,0 -11.04015,-3.39842 -17.65526,-5.11717 -6.61511,-1.71875 -7.13692,-6.85949 -11.56777,-5.92587 -2.58883,0.54549 -3.1646,-1.92345 -3.24327,-5.85585 -0.0467,-2.3351 6.02574,1.62408 16.47842,3.43532 10.03524,1.7389 7.40621,4.1774 15.01457,5.77445 5.60712,1.17697 5.99,-5.08625 4.5089,-21.47058 -0.81386,-9.00321 -1.08307,-30.94514 -0.6121,-37.62196 0.49026,-6.95018 -0.76482,-16.1022 -1.59259,-22.66221 -3.6813,-29.173637 -5.08533,-27.100555 -8.07488,-29.521347 -2.36093,-1.911776 -4.50557,-2.244635 -12.01805,-1.865272 l -9.14427,0.461766 0.37095,-4.402244 0.37095,-4.402242 9.04309,-0.36687 c 4.9737,-0.201779 10.14268,0.221618 11.48663,0.94088 3.299,1.765574 3.67562,0.818461 4.63438,-11.654694 0.69255,-9.009785 0.36703,-12.465844 -2.0058,-21.295391 -5.16744,-19.228644 -13.06638,-29.498925 -22.68781,-29.498925 -6.60795,0 -9.00393,3.610347 -10.05682,15.153987 -0.85387,9.361689 0.76325,53.07087 2.11069,57.049752 0.29405,0.868306 -0.29095,7.05581 -1.29999,13.75 -1.14733,7.61157 -1.8374,21.62013 -1.842,37.39331 -0.004,13.87212 -0.597,29.46129 -1.31765,34.64259 -0.92983,6.68527 -2.16123,11.81688 -1.19853,15.39198 1.18722,4.40897 -0.67776,3.7592 -2.47492,17.23242 -0.97684,7.3233 -1.58591,18.56971 -2.34646,26.0227 -1.21008,11.85807 0.18308,12.61283 0.60076,27.19396 0.25461,8.88853 2.07598,18.65877 2.19827,27.49702 l 0.28163,20.35534 -2.09332,4.14231 c -1.25776,2.4889 -3.68932,4.96875 -6.02035,7.88069 -5.90233,7.37323 -10.74766,10.03506 -18.26178,10.0323 -7.51166,-0.002 -15.44183,-2.0184 -18.44516,-4.68826 -2.5169,-2.23745 -2.46036,-2.2761 -4.62624,3.16271 -2.62171,6.58338 -7.99448,10.28719 -14.92267,10.28719 -7.72871,0 -17.981226,-3.09599 -22.162346,-6.69244 -3.26936,-2.81218 -3.39183,-2.8223 -7.68209,-0.63501 -11.47057,5.84804 -25.66562,3.94188 -35.674805,-4.79054 -10.79394,-9.41709 -11.696446,-11.98151 -12.760904,-36.25947 -0.506346,-11.54865 -1.692746,-23.52879 -2.636446,-26.62254 -1.685134,-5.52441 -1.654791,-5.67464 1.696746,-8.40066 1.87691,-1.52663 3.851204,-2.33704 4.38732,-1.80092 2.509328,2.50933 7.179393,28.82319 7.190255,40.51408 0.0063,6.70312 -0.653806,14.90879 -0.04254,14.90879 0.611263,0 9.350823,-6.66631 14.328681,-8.88654 8.649456,-3.85785 12.671898,0.0407 18.155102,-1.51655 2.631871,-0.74745 2.831828,-0.41293 1.914668,-3.74354 -1.15933,-4.21002 -3.216881,-17.63512 -2.916622,-23.59017 0.75063,-14.88721 -1.849629,-55.41505 -8.460091,-56.74682 -4.82978,-0.97303 -20.297055,3.0918 -26.862065,8.31142 -2.481335,1.97281 -15.270165,11.62457 -18.903476,30.96608 l -3.70752,14.35466 -0.115283,31.52537 c -0.06403,17.51034 1.971243,31.12224 2.23925,31.39024 0.268008,0.26801 2.066547,-0.62497 3.996755,-1.98439 1.930208,-1.35943 -3.734494,1.86725 6.959364,-1.48368 13.532377,2.85766 -4.092721,9.00705 -8.257562,13.45235 l -3.557668,3.74293 1.200047,11.05618 c 0.875698,8.06791 3.072669,16.30507 8.128497,30.4764 3.810647,10.68112 7.311865,21.97702 7.780484,25.10201 l 0.852035,5.68177 8.327136,2.66318 c 4.579925,1.46475 10.623146,3.02248 13.429386,3.46164 5.99116,0.93756 18.98199,-2.04769 24.94306,-5.73183 5.10509,-3.15512 7.64177,-3.12592 9.37245,0.10788 1.03329,1.93072 0.9908,3.04973 -0.16886,4.44705 -3.12586,3.76642 -12.33014,8.09842 -21.08573,9.92401 -9.54831,1.99089 -17.99853,1.23085 -28.838875,-2.59385 -5.950366,-2.09941 -5.713306,-2.4801 -6.684386,10.73435 -0.677369,9.21762 -6.002696,36.64659 -10.539141,54.28354 l -2.250609,8.75 -7.600878,0.3686 -7.600877,0.36859 6.200577,-19.11859 c 4.30726,-13.28083 6.530119,-22.55374 7.279823,-30.3686 0.593585,-6.1875 1.771951,-16.92407 2.61859,-23.85904 1.911395,-15.65658 1.197839,-19.33216 -8.135935,-41.909 -9.13945,-22.10678 -9.684631,-26.89943 -9.22618,-81.10694 l 0.364721,-43.125 6.728821,-21.56896 c 4.200542,-13.46467 13.526234,-24.75416 14.607245,-25.98461 3.966,-4.51429 22.030346,-11.83762 30.779624,-12.64631 l 8.3657,-0.77322 6.9403,-10.42891 c 5.832032,-8.76356 5.939009,-8.98018 18.822996,-14.66429 4.921426,-2.17122 21.659556,-2.75877 22.523956,-1.89438 2.3128,2.3128 -2.23398,1.38348 1.44885,-5.912 1.94288,-3.84872 6.55989,-9.6503 11.25729,-12.64455 0.50557,-0.32227 0.89798,-0.76414 1.37899,-0.89898 12.58334,-3.52763 -0.89751,-2.33529 12.58334,-3.52763 6.4542,-0.57086 22.24947,4.91786 24.73267,8.37543 1.74748,2.43316 1.79525,2.37093 0.90695,-1.18159 -1.76673,-7.0656 1.50995,-29.32091 1.30268,-50.625 -0.13041,-13.40529 2.14948,-16.842339 0.70117,-45.661209 -0.86478,-17.207415 -1.19165,-33.801165 -0.7264,-36.875 1.74237,-11.511674 9.40885,-20.130385 19.40915,-21.819924 19.93691,-3.3683215 34.45183,18.665788 37.37388,56.734745 0.55922,7.285514 0.68487,16.340139 0.27923,20.121389 -0.52527,4.896331 0.12275,10.832339 2.25165,20.624999 3.52162,16.1991 -0.96494,31.52134 2.60252,46.5471 2.65784,11.19458 1.11261,21.57086 0.70127,30.57674 -0.83285,18.23453 -0.68981,24.53547 -3.83176,45.41959 -3.1346,20.83526 -1.61333,14.32731 -1.88241,29.53855 -0.28788,16.27383 -2.44333,15.6758 -0.0828,18.86811 4.97423,6.72709 4.5894,7.00827 28.95011,-1.5232 12.03125,-4.21351 25.25,-9.6873 29.375,-12.16395 6.6443,-3.98925 8.95717,-4.64155 20.27169,-5.71725 7.02442,-0.66783 14.79523,-0.83461 17.26847,-0.37063 2.47324,0.46399 10.10271,3.70107 16.95439,7.1935 13.47024,6.86608 20.7522,13.5793 27.51107,25.36247 4.31544,7.52335 3.38662,7.95576 -0.0691,15.06859 -2.79773,7.29069 -4.79065,3.58098 -10.76467,7.10328 -13.84082,6.87329 -16.42595,10.5818 -31.04355,15.91395 -18.01298,6.57071 -8.75761,3.25128 -31.98166,11.23916 -25.50002,7.17297 -8.7519,1.96003 -31.91782,12.59646 -17.23524,9.9448 -21.38703,15.16297 -30.60387,19.59294 -13.87914,6.67086 -22.98389,14.98654 -26.41927,24.12959 -10.81413,28.78114 -18.55602,60.88667 -18.59527,77.11444 -0.007,3.30581 0.94077,12.41007 2.10837,20.23168 2.05829,13.78838 2.05147,14.27337 -0.22438,15.93751 -2.91905,2.13446 -5.81419,2.18811 -8.30426,0.15387 z M 120.03967,333.47155 c 5.1978,-1.39625 4.06311,-3.63532 1.69101,-24.90266 -3.61588,-32.41868 -0.8712,-25.63667 -1.68524,-45.05169 -0.86137,-20.54389 -1.73733,-34.76857 -2.63277,-45.52671 -0.7732,-9.28944 -5.23989,-24.65631 -7.78004,-25.63105 -4.48616,-1.7215 -19.137956,8.27356 -24.906656,16.99066 -3.19892,4.8339 -3.20372,4.88125 -1.15776,11.41141 1.12997,3.60657 1.317869,8.78905 1.939009,15.3203 0.62114,6.53125 0.565749,20.77963 1.398378,24.05576 1.42055,5.58941 1.071481,7.7871 1.714193,22.39154 0.286613,6.51275 2.755909,22.26777 4.871689,23.57539 0.59486,0.36764 10.771917,-2.20258 13.854817,-2.19005 27.81314,0.11297 23.02576,4.82359 15.73575,5.10742 l -4.97933,0.19386 -6.67871,-0.78495 c -6.75912,-0.7944 -10.01225,0.13263 -13.817026,3.93742 -2.72856,2.72856 -1.29401,12.53318 2.598996,17.76319 2.7983,3.75932 3.5556,4.06123 10.14785,4.04544 3.91814,-0.01 8.27676,-0.32676 9.68584,-0.70528 z m -39.433946,-5.09076 c 2.82569,-0.56514 3.59981,-1.52964 4.21541,-5.25209 0.8791,-5.31587 0.86225,-11.4939 -0.0254,-9.30992 -0.43283,1.06495 -1.826468,-1.33409 -4.043898,-2.17716 -5.58287,-2.1226 -19.300357,-1.33193 -23.153875,5.34036 l -4.955148,8.57974 -1.530197,-5.52191 c -1.37574,-4.96453 -0.509892,-6.22403 -0.509892,-3.73053 0,3.50835 6.397171,9.84715 11.56133,11.45583 8.59018,2.67593 8.20477,2.66305 18.44167,0.61568 z m 85.346216,-3.8233 c 5.27465,-3.04449 8.39892,-9.46486 8.38858,-17.2386 -0.0137,-10.29039 -2.6121,-27.1355 -3.08344,-43.3419 -0.34523,-11.87008 -0.48763,-16.84087 -0.94434,-27.49225 -0.64334,-15.00384 0.81207,-36.38289 -0.92599,-44.16585 -3.40279,-15.23749 -3.62225,-15.67286 -9.17003,-18.19156 -7.14782,-3.24515 -17.72772,-3.19305 -23.15201,0.114 -3.12158,1.90313 -5.3887,5.19106 -9.0625,13.143 -2.69473,5.8327 -4.89949,11.31371 -4.89949,12.18001 0,0.8663 2.69199,26.92238 2.81896,32.48874 0.60099,26.34638 1.95263,-12.56348 0.7281,23.28096 -1.21539,35.57665 -2.04699,36.65094 3.69646,46.64515 1.37725,2.39655 0.88867,6.199 0.16536,6.64602 -1.7416,1.07638 4.85446,12.64733 9.3808,16.45598 3.5068,2.95077 4.43899,3.13064 12.90678,2.49021 5.49715,-0.41575 10.72805,-1.61439 13.15277,-3.0139 z m -33.47925,-8.79852 c -6.53889,-2.10421 1.19701,-4.55214 -3.10207,-4.94739 -26.94051,-2.47687 3.29276,-8.37702 2.44947,-10.85388 l 9.27301,-6.27186 c 8.4599,-5.72191 9.47378,-3.07708 14.99768,-2.9695 10.9787,0.21382 19.18006,4.14979 19.18006,16.29894 0,7.39551 2.19831,13.28475 -1.71772,11.80273 -2.09105,-0.79136 -4.3299,-7.02425 -4.82286,-12.1546 -0.83824,-8.72367 -11.53053,-11.59273 -20.66529,-8.8559 -6.6957,2.00609 -16.9703,8.17384 -12.20916,15.59342 2.11721,3.29939 1.39652,8.71154 1.0486,9.00544 -6.4007,5.40679 -4.97893,-4.3643 -4.43172,-6.6474 z" id="path4064" inkscape:connector-curvature="0" sodipodi:nodetypes="ssssssssscssssssssssssssssssssscccsssssssssssssscccssssssssssssssscsscsssssssssscsssssssscscscccssscssssssssscccssssscssscsssssssssssssssssssssssssssccsccsscsssssssssssssssscssscsscssscssssccsssssssssscsscccccsssssssscc"/>
</svg>