<?xml version="1.0" encoding="UTF-8" standalone="no"?>
<!-- Created with Inkscape (http://www.inkscape.org/) -->
<svg xmlns:dc="http://purl.org/dc/elements/1.1/" xmlns:cc="http://creativecommons.org/ns#" xmlns:rdf="http://www.w3.org/1999/02/22-rdf-syntax-ns#" xmlns:svg="http://www.w3.org/2000/svg" xmlns="http://www.w3.org/2000/svg" xmlns:sodipodi="http://sodipodi.sourceforge.net/DTD/sodipodi-0.dtd" xmlns:inkscape="http://www.inkscape.org/namespaces/inkscape" id="svg2" version="1.1" inkscape:version="0.48+devel r12701" width="383.60303" height="485.70944" viewBox="0 0 383.60303 485.70944" sodipodi:docname="q.svg">

  <metadata id="metadata8">
    <rdf:RDF>
      <cc:Work rdf:about="">
        <dc:format>image/svg+xml</dc:format>
        <dc:type rdf:resource="http://purl.org/dc/dcmitype/StillImage"/>
        <dc:title>ASL letter</dc:title>
        <dc:date>11/11/2013</dc:date>
        <dc:creator>
          <cc:Agent>
            <dc:title>edited by Paul Sherman</dc:title>
          </cc:Agent>
        </dc:creator>
        <dc:rights>
          <cc:Agent>
            <dc:title>PD</dc:title>
          </cc:Agent>
        </dc:rights>
        <dc:publisher>
          <cc:Agent>
            <dc:title>WPClipart</dc:title>
          </cc:Agent>
        </dc:publisher>
        <dc:subject>
          <rdf:Bag>
            <rdf:li>sign</rdf:li>
            <rdf:li>language</rdf:li>
            <rdf:li>letter</rdf:li>
            <rdf:li>american</rdf:li>
          </rdf:Bag>
        </dc:subject>
        <cc:license rdf:resource="http://creativecommons.org/publicdomain/zero/1.0/"/>
      </cc:Work>
      <cc:License rdf:about="http://creativecommons.org/publicdomain/zero/1.0/">
        <cc:permits rdf:resource="http://creativecommons.org/ns#Reproduction"/>
        <cc:permits rdf:resource="http://creativecommons.org/ns#Distribution"/>
        <cc:permits rdf:resource="http://creativecommons.org/ns#DerivativeWorks"/>
      </cc:License>
    </rdf:RDF>
  </metadata>
  <defs id="defs6"/>
  <sodipodi:namedview pagecolor="#ffffff" bordercolor="#666666" borderopacity="1" objecttolerance="10" gridtolerance="10" guidetolerance="10" inkscape:pageopacity="0" inkscape:pageshadow="2" inkscape:window-width="878" inkscape:window-height="725" id="namedview4" showgrid="false" fit-margin-top="12" fit-margin-left="12" fit-margin-right="12" fit-margin-bottom="12" inkscape:zoom="0.45167464" inkscape:cx="178.07102" inkscape:cy="238.80496" inkscape:window-x="0" inkscape:window-y="0" inkscape:window-maximized="0" inkscape:current-layer="svg2"/>
  <path style="fill:#000000" d="m 21.554644,470.68862 c -9.294406,-5.88662 -10.246458,-8.1192 -9.23351,-21.65278 0.473669,-6.32849 4.645934,-37.94385 9.2717,-70.25635 5.747627,-40.14906 8.14431,-60.33306 7.569788,-63.75 -0.611549,-3.63715 -0.324818,-5.581 1.051955,-7.13155 1.322405,-1.48933 4.356587,-19.52356 10.070453,-59.85564 7.930744,-55.98019 8.126259,-57.9739 6.471704,-65.99344 -0.938354,-4.54816 -1.667316,-12.89486 -1.619916,-18.54824 0.0777,-9.26756 0.434156,-10.74337 3.622951,-15 10.446766,-13.94508 40.152314,-41.43845 63.263641,-58.552376 5.04493,-3.73578 10.29761,-7.627816 11.67261,-8.648976 1.375,-1.02116 8.6875,-6.432636 16.25,-12.025504 7.5625,-5.592867 15.4375,-11.730997 17.5,-13.64029 11.34675,-10.503881 20.55364,-16.028887 33.35034,-20.013362 19.78548,-6.16055 33.51251,-10.470339 55.91407,-17.554992 19.59799,-6.198 20.98089,-6.458723 30.95669,-5.836355 5.74325,0.358309 11.13677,1.210725 11.98559,1.894259 0.84882,0.683534 3.51206,1.653945 5.91831,2.15647 2.40625,0.502525 5.13811,1.529893 6.07081,2.283039 2.13338,1.722675 6.21877,4.10656 9.86669,5.757349 1.54687,0.700004 2.8125,1.849157 2.8125,2.553673 0,0.704516 1.0125,1.280939 2.25,1.280939 1.2375,0 2.84827,0.598274 3.5795,1.329499 0.73122,0.731223 6.54545,3.7892 12.9205,6.795501 6.37505,3.006301 12.18928,6.064278 12.9205,6.795501 0.73123,0.731225 2.15709,1.329499 3.16858,1.329499 1.01148,0 2.72711,0.73821 3.8125,1.640466 1.08538,0.902257 4.50467,2.69384 7.59842,3.981295 7.85678,3.269574 11.4449,6.724769 10.99435,10.587038 -0.3367,2.8863 -0.81136,3.127192 -5.36935,2.724945 -3.0056,-0.265249 -6.96797,-1.885699 -9.93375,-4.0625 -2.71356,-1.991684 -5.94644,-3.621244 -7.18416,-3.621244 -3.97699,0 -25.08303,-10.825953 -39.56463,-20.293941 -1.8246,-1.192918 -4.44246,-2.749203 -5.81746,-3.45841 -1.375,-0.709209 -4.9791,-2.68631 -8.0091,-4.39356 -5.3425,-3.01021 -10.1159,-4.047547 -10.1159,-2.198343 0,0.49816 2.06647,2.744191 4.59215,4.99118 2.52569,2.24699 4.21664,4.460955 3.75766,4.919924 -0.45896,0.45897 -1.8666,-0.09956 -3.12807,-1.24118 -1.26148,-1.141619 -2.8118,-2.085388 -3.44517,-2.097266 -0.63336,-0.01187 -2.47623,-1.418128 -4.09527,-3.125 -1.61904,-1.706871 -3.50734,-3.103404 -4.19624,-3.103404 -0.68889,0 -0.9403,-0.813663 -0.55869,-1.80814 0.5136,-1.338421 -0.67796,-2.013854 -4.58681,-2.600022 -4.54052,-0.680895 -11.58315,1.255632 -50.24761,13.816706 l -44.96695,14.60859 -10.625,8.996064 c -5.84375,4.947835 -24.28411,20.380272 -40.9786,34.294302 -16.69448,13.914026 -30.090957,25.723186 -29.769977,26.242546 0.32099,0.51937 0.19887,1.49449 -0.2714,2.16693 -1.10277,1.57688 -10.99537,9.28302 -11.91689,9.28302 -1.32016,0 -10.18236,6.42734 -14.98504,10.86795 -6.677673,6.17425 -9.570426,13.56211 -9.611959,24.54819 -0.04549,12.03166 -2.604634,35.61022 -6.195713,57.08386 -0.747319,4.46875 -1.87826,11.21875 -2.513204,15 -3.860825,22.99218 -9.986636,62.19781 -9.996069,63.97556 -0.0065,1.2278 1.152109,2.26653 2.788585,2.5 3.512485,0.50113 4.327096,4.2337 1.585206,7.26346 -1.504893,1.66289 -1.756015,2.93993 -0.903476,4.59449 1.453976,2.82181 0.648333,5.41649 -1.68181,5.41649 -3.884577,0 -5.563211,6.35247 -9.918034,37.53292 -2.445975,17.51314 -5.276215,37.75652 -6.289421,44.98527 -2.14767,15.32261 -2.327311,25.06022 -0.578465,31.356 1.069424,3.84987 0.723474,5.77551 -2.397165,13.34313 -3.37514,8.1848 -3.492099,8.97877 -1.569259,10.65269 4.379864,3.8129 6.95935,4.46674 10.9696,2.78055 6.990905,-2.93945 16.082623,-21.02412 20.081115,-39.94409 3.260886,-15.42977 3.579233,-20.90593 1.416634,-24.36881 -1.232481,-1.97351 -0.946527,-3.19422 1.679719,-7.17053 4.156467,-6.29318 5.320741,-10.08235 9.730155,-31.66713 3.648661,-17.86076 3.667091,-18.15 1.264055,-19.83996 -1.604415,-1.12833 -2.438584,-3.17007 -2.438584,-5.96875 0,-3.62507 0.50807,-4.36482 3.4375,-5.00493 5.3674,-1.17283 9.99937,-7.685 11.49624,-16.16275 0.71849,-4.06923 1.87444,-9.92986 2.56879,-13.02361 0.69436,-3.09375 1.76463,-8.15625 2.37838,-11.25 0.61374,-3.09375 2.10666,-10.31536 3.31757,-16.04804 2.1807,-10.32374 1.8821,-16.08905 -1.41857,-27.38946 -0.65428,-2.24001 -0.32238,-2.8125 1.63057,-2.8125 1.34863,0 3.47016,1.125 4.71452,2.5 1.24436,1.375 3.08464,2.5 4.08952,2.5 1.31349,0 1.5879,0.79057 0.97624,2.8125 -1.82364,6.02832 -1.53014,6.54692 3.929707,6.9436 4.8223,0.35035 5.77773,-0.13192 11.84292,-5.97799 l 6.59743,-6.35907 -9.03041,-8.90617 -9.03041,-8.90616 -0.1481,-8.86586 c -0.18741,-11.21878 -0.0405,-12.21896 2.12141,-14.44621 2.9328,-3.02139 5.65868,1.0905 7.57413,11.42532 1.36674,7.37429 2.39942,9.76289 5.30915,12.28004 18.86316,16.3182 18.89341,16.33927 18.89341,13.16302 0,-1.80387 -1.98838,-5.7239 -7.3108,-14.41302 -5.38231,-8.7869 -2.84244,-10.03033 3.5608,-1.74323 2.40625,3.11419 5.27966,6.16378 6.38536,6.77687 1.74404,0.96703 1.89723,0.50045 1.15637,-3.52196 -0.46972,-2.55018 -1.515,-5.86533 -2.32287,-7.367 -1.65331,-3.07319 -2.01547,-10.88004 -0.46013,-9.91879 0.55481,0.34289 3.36731,4.57762 6.25,9.41055 4.57393,7.66828 5.23433,9.70712 5.18683,16.01284 -0.0299,3.97414 -0.5992,9.75697 -1.26502,12.85072 -0.66583,3.09375 -1.75956,8.71875 -2.43054,12.5 -1.58469,8.93049 -3.02081,15.14963 -5.62869,24.375 -1.16607,4.125 -3.228,11.71875 -4.58206,16.875 -1.35406,5.15625 -2.938,11.0625 -3.51986,13.125 -5.6433,20.00354 -6.5646,23.82542 -10.09429,41.875 -2.88761,14.76622 -3.7629,29.7077 -2.42059,41.32027 1.32114,11.4293 3.20208,18.67973 4.846,18.67973 0.43847,0 1.82922,-4.59153 3.09056,-10.20337 2.84749,-12.66884 5.28842,-17.90818 9.16629,-19.67506 6.83656,-3.11495 16.8923,-0.57691 20.36974,5.14127 l 2.24173,3.68621 2.01558,-2.87766 c 1.10858,-1.58272 2.01559,-4.14292 2.01559,-5.68933 0,-2.79587 7.28522,-31.79326 8.23231,-32.76705 0.2728,-0.2805 -0.1305,-1.26487 -0.89621,-2.1875 -0.91888,-1.10717 -4.32875,-1.67751 -10.0293,-1.67751 -8.55956,0 -17.3068,-2.46348 -17.3068,-4.8741 0,-0.68843 0.9578,-1.78769 2.12845,-2.44281 1.76544,-0.98799 1.85443,-1.52134 0.52173,-3.12714 -2.7964,-3.36946 -0.17913,-7.93896 4.09193,-7.14411 0.61442,0.11437 2.72379,-0.14499 4.6875,-0.57629 4.39698,-0.96574 4.80049,-4.33555 0.51917,-4.33555 -3.73607,0 -5.39295,-2.21615 -2.4898,-3.33019 2.46223,-0.94485 9.79895,2.57822 14.26717,6.85105 2.87041,2.74488 2.94161,3.0822 0.95694,4.53344 -2.8058,2.05165 -1.50755,3.1957 3.62642,3.1957 3.50465,0 4.2582,-0.52955 4.89155,-3.4375 2.40635,-11.0484 5.96842,-19.67895 17.07758,-41.37744 l 12.38472,-24.18995 -3.3272,-4.80116 c -2.19716,-3.1705 -4.45377,-4.93154 -6.64418,-5.18505 -2.19482,-0.25402 -3.26382,-1.09051 -3.15984,-2.47255 0.0946,-1.25745 -0.50339,-1.83519 -1.50264,-1.45174 -0.91289,0.35032 -2.33444,0.21997 -3.159,-0.28965 -1.08867,-0.67283 -0.8899,-1.37212 0.72588,-2.5536 1.39635,-1.02103 1.97603,-2.57947 1.55638,-4.1842 -0.36778,-1.40643 -0.15887,-2.55716 0.46427,-2.55716 0.62313,0 1.13297,0.4969 1.13297,1.10421 0,0.60732 0.98438,1.43474 2.1875,1.83872 2.58573,0.8682 5.18501,2.51158 12.64483,7.99457 7.52578,5.53149 10.4308,5.29018 15.04833,-1.25 2.06293,-2.92187 5.52854,-7.28125 7.70135,-9.6875 8.55659,-9.47586 15.18579,-21.66277 19.71857,-36.25 2.76111,-8.88572 3.45035,-11.50932 8.37372,-31.875 3.45846,-14.30602 5.24025,-20.76002 6.90183,-25 0.53883,-1.375 1.97793,-5.3125 3.198,-8.75 2.56453,-7.22559 6.09056,-13.98961 9.04022,-17.342 3.06821,-3.48712 22.51744,-2.25724 29.60476,1.87209 2.72574,1.5881 5.14339,3.32789 5.37255,3.86619 0.22918,0.5383 1.07293,0.99055 1.875,1.005 0.80209,0.0145 4.58485,2.96758 8.40614,6.5625 3.8213,3.59492 9.95158,9.06747 13.62284,12.16122 9.23045,7.77845 10.03244,8.63206 14.02905,14.93223 4.21845,6.64987 4.2614,7.33912 0.91494,14.68506 l -2.61038,5.73014 -2.90012,-2.98622 c -1.59507,-1.64241 -4.07995,-5.23621 -5.52197,-7.98621 -3.48128,-6.63899 -11.39225,-16.59576 -21.41843,-26.95734 -6.46068,-6.6768 -9.22732,-8.64936 -13.125,-9.3579 -2.7163,-0.49377 -7.02569,-1.94671 -9.57643,-3.22876 -5.97655,-3.00392 -11.60131,-2.96699 -14.66462,0.0964 -3.39543,3.39542 -7.79328,18.25063 -6.86614,23.19271 0.57865,3.08444 7.18167,10.40885 29.39487,32.6063 15.75673,15.7455 28.64859,29.27033 28.64859,30.05514 0,1.91918 -4.91674,3.10124 -7.38959,1.77655 -1.09197,-0.58497 -6.25965,-5.7592 -11.48371,-11.49833 -17.38946,-19.10392 -29.17929,-30.52074 -36.33854,-35.18885 -11.05587,-7.20887 -10.06844,-8.35929 -14.80969,17.2541 -4.43257,23.94585 -4.60986,24.4191 -13.81394,36.875 -4.82617,6.53125 -10.70782,14.40625 -13.07036,17.5 -15.91776,20.84441 -27.40612,37.24148 -33.28017,47.5 -6.54661,11.43306 -14.58645,29.62873 -17.12187,38.75 -0.66888,2.40625 -1.78469,6.34375 -2.4796,8.75 -0.69493,2.40625 -1.66009,7.4574 -2.14482,11.22479 -0.48473,3.76738 -1.7011,9.11113 -2.70305,11.875 -2.60687,7.19105 -4.76555,15.88037 -7.14857,28.77521 -8.62305,46.66034 -10.02824,49.375 -25.55796,49.375 -8.57598,0 -16.01625,-3.14365 -20.28617,-8.57126 -10.88071,-13.83078 -13.66628,-44.36784 -7.85195,-86.07724 l 0.73514,-5.27349 -14.65914,0.7856 c -14.301647,0.76645 -14.712367,0.71501 -16.842617,-2.10912 -5.02315,-6.65934 -6.19721,-2.84773 -19.442555,63.12051 -3.174891,15.8125 -6.905716,31 -8.290721,33.75 -10.943391,21.72867 -13.752659,25.81353 -19.42479,28.24489 -9.170733,3.93102 -10.530498,3.92411 -16.861703,-0.0858 z M 142.44602,436.90449 c 0.4249,-0.6875 -0.38565,-1.25 -1.80123,-1.25 -1.41557,0 -2.57377,0.5625 -2.57377,1.25 0,0.6875 0.81055,1.25 1.80122,1.25 0.99068,0 2.14888,-0.5625 2.57378,-1.25 z m 8.11211,-8.31623 c 3.6243,-2.14092 4.97066,-6.31438 4.99913,-15.49627 0.0154,-4.97034 -1.78878,-7.4375 -5.43892,-7.4375 -1.34897,0 -4.97616,-1.47886 -8.06041,-3.28635 l -5.60774,-3.28635 -2.03693,2.70041 c -1.12032,1.48523 -2.73509,6.38078 -3.58839,10.879 -2.17958,11.4897 -0.69745,14.32554 8.50049,16.26443 3.77886,0.79657 7.06512,1.51144 7.3028,1.58859 0.23767,0.0771 2.00616,-0.78953 3.92997,-1.92595 z m 0.44861,-30.12752 c 1.03015,-1.66681 -3.87223,-6.55625 -6.57358,-6.55625 -3.08862,0 -3.41287,2.7707 -0.64785,5.53571 2.05352,2.05354 6.21918,2.64223 7.22143,1.02054 z m -38.87118,-63.28879 c 9.61957,-5.1757 8.33377,-1.62099 18.58939,-51.39246 0.70831,-3.4375 1.80718,-7.97744 2.44195,-10.08875 1.49113,-4.95971 1.47555,-10.19006 -0.0331,-11.12249 -1.72336,-1.0651 -2.87859,1.79734 -8.25223,20.44772 -4.31102,14.96228 -5.22573,16.98254 -8.62884,19.05782 -2.09365,1.27675 -4.22852,2.32346 -4.74414,2.32602 -1.77743,0.009 -0.92432,-4.71588 3.38702,-18.75831 6.83158,-22.25105 7.08978,-28.06824 1.09182,-24.59828 -1.413,0.81745 -5.60034,3.10082 -9.30522,5.07414 -3.70486,1.97334 -6.916107,3.74708 -7.136097,3.94164 -0.43232,0.38238 -3.82775,14.13263 -6.47476,26.22049 -0.9033,4.125 -2.96039,12.71016 -4.57131,19.07812 -3.49247,13.80572 -3.56866,15.70322 -0.81749,20.36057 3.65752,6.19169 12.28831,5.9989 24.453077,-0.54623 z m -10.7312,-22.8508 c -1.661527,-1.66152 -0.87324,-7.91666 0.99768,-7.91666 2.00744,0 4.41898,3.707 4.41898,6.79282 0,1.93843 -3.81131,2.72919 -5.41666,1.12384 z m 64.16666,22.08334 c 0,-0.6875 -1.40625,-1.25 -3.125,-1.25 -1.71875,0 -3.125,0.5625 -3.125,1.25 0,0.6875 1.40625,1.25 3.125,1.25 1.71875,0 3.125,-0.5625 3.125,-1.25 z m -36.25,-83.125 c 0,-1.03125 -0.5293,-1.875 -1.17623,-1.875 -1.57622,0 -2.70512,1.95199 -1.70646,2.95065 1.40774,1.40773 2.88269,0.85736 2.88269,-1.07565 z m 111.25,-81.10246 c 0,-2.40625 0.50309,-4.68591 1.11796,-5.06594 0.61488,-0.38001 1.40112,-2.80382 1.74719,-5.38626 2.024,-15.10314 13.65198,-41.44641 22.85364,-51.7751 4.95386,-5.56062 6.28796,-4.95074 2.76059,1.26199 -5.14755,9.06633 -8.31674,15.96305 -10.9649,23.86154 -1.48328,4.42408 -3.79735,9.44282 -5.1424,11.15277 -3.36852,4.28237 -7.37208,13.62991 -7.37208,17.21236 0,1.63135 -0.5625,2.9661 -1.25,2.9661 -0.6875,0 -1.25,1.93555 -1.25,4.30122 0,2.36568 -0.5625,4.64888 -1.25,5.07378 -0.74239,0.45883 -1.25,-1.0041 -1.25,-3.60246 z" id="path4064" inkscape:connector-curvature="0"/>
</svg>