<?xml version="1.0" encoding="UTF-8" standalone="no"?>
<!-- Created with Inkscape (http://www.inkscape.org/) -->
<svg xmlns:dc="http://purl.org/dc/elements/1.1/" xmlns:cc="http://creativecommons.org/ns#" xmlns:rdf="http://www.w3.org/1999/02/22-rdf-syntax-ns#" xmlns:svg="http://www.w3.org/2000/svg" xmlns="http://www.w3.org/2000/svg" xmlns:sodipodi="http://sodipodi.sourceforge.net/DTD/sodipodi-0.dtd" xmlns:inkscape="http://www.inkscape.org/namespaces/inkscape" id="svg2" version="1.1" inkscape:version="0.48+devel r12701" width="516.97906" height="431.84229" viewBox="0 0 516.97906 431.84229" sodipodi:docname="y.svg">

  <metadata id="metadata8">
    <rdf:RDF>
      <cc:Work rdf:about="">
        <dc:format>image/svg+xml</dc:format>
        <dc:type rdf:resource="http://purl.org/dc/dcmitype/StillImage"/>
        <dc:title>ASL letter</dc:title>
        <dc:date>11/11/2013</dc:date>
        <dc:creator>
          <cc:Agent>
            <dc:title>edited by Paul Sherman</dc:title>
          </cc:Agent>
        </dc:creator>
        <dc:rights>
          <cc:Agent>
            <dc:title>PD</dc:title>
          </cc:Agent>
        </dc:rights>
        <dc:publisher>
          <cc:Agent>
            <dc:title>WPClipart</dc:title>
          </cc:Agent>
        </dc:publisher>
        <dc:subject>
          <rdf:Bag>
            <rdf:li>sign</rdf:li>
            <rdf:li>language</rdf:li>
            <rdf:li>letter</rdf:li>
            <rdf:li>american</rdf:li>
          </rdf:Bag>
        </dc:subject>
        <cc:license rdf:resource="http://creativecommons.org/publicdomain/zero/1.0/"/>
      </cc:Work>
      <cc:License rdf:about="http://creativecommons.org/publicdomain/zero/1.0/">
        <cc:permits rdf:resource="http://creativecommons.org/ns#Reproduction"/>
        <cc:permits rdf:resource="http://creativecommons.org/ns#Distribution"/>
        <cc:permits rdf:resource="http://creativecommons.org/ns#DerivativeWorks"/>
      </cc:License>
    </rdf:RDF>
  </metadata>
  <defs id="defs6"/>
  <sodipodi:namedview pagecolor="#ffffff" bordercolor="#666666" borderopacity="1" objecttolerance="10" gridtolerance="10" guidetolerance="10" inkscape:pageopacity="0" inkscape:pageshadow="2" inkscape:window-width="1221" inkscape:window-height="976" id="namedview4" showgrid="false" fit-margin-top="12" fit-margin-left="12" fit-margin-right="12" fit-margin-bottom="12" inkscape:zoom="0.86" inkscape:cx="296.17474" inkscape:cy="260.48402" inkscape:window-x="44" inkscape:window-y="0" inkscape:window-maximized="0" inkscape:current-layer="svg2"/>
  <path style="fill:#000000" d="m 164.22522,389.11609 c -8.74427,-15.64052 -11.94816,-40.35415 -17.84445,-50.3229 -13.43731,-22.71822 -30.95469,-57.21443 -33.60241,-66.17175 -3.03147,-10.25555 -3.80504,-15.05319 -11.39048,-45.93014 -5.205362,-21.18867 -9.281862,-42.07652 -22.470657,-61.87076 -8.2412,-12.36871 -16.035279,-26.78997 -29.681304,-43.52028 0,0 -7.976404,-11.14346 -14.668977,-25.05573 C 26.543125,79.56493 30.697356,90.09518 20.686965,74.12373 12.378878,60.86828 11.881207,48.035717 12.016793,35.48662 12.160014,22.230904 22.53162,15.225666 27.79138,13.027999 c 3.885354,-1.623405 5.05104,-1.493047 14.461868,1.617265 5.629736,1.860647 11.997999,4.930153 14.151696,6.821125 2.153698,1.890971 9.725068,8.653089 14.172091,15.892865 4.896785,7.971992 7.338481,10.848758 14.054743,16.966912 4.31418,9.658191 6.88616,8.821216 12.15237,14.611723 C 107.19478,80.38498 105.12271,82.75705 113.4532,90.97293 l 10.19545,10.05518 9.33222,-10.77644 c 4.99574,-5.76886 24.34145,-12.70848 27.81229,-12.70848 1.80221,0 6.21757,0.87333 9.81191,1.94074 7.90173,2.34655 10.52778,1.66635 13.77406,-3.56778 1.36379,-2.19888 4.34484,-5.778481 6.62457,-7.954675 5.00753,-4.780119 29.85512,-17.918285 33.888,-17.918285 1.5838,0 5.36722,1.57239 8.40761,3.494199 l 5.52797,3.494199 11.47138,-7.209904 c 15.69796,-9.86636 27.75355,-15.992831 32.975,-16.7574 6.90035,-1.010409 14.4314,2.305817 26.09642,17.388373 20.75447,26.834993 14.04514,16.878903 18.77107,25.102443 7.83461,13.63295 11.23561,24.36608 19.73149,51.13175 1.01407,3.19475 2.13662,5.42762 4.57606,6.875 4.208,2.49673 3.62214,3.08915 13.68969,-13.84302 12.06836,-20.2973 22.67833,-33.96801 39.63527,-51.069161 24.56415,-24.773071 36.91779,-31.91141 57.54153,-33.249412 18.54958,-1.203435 31.13823,4.707548 37.34416,17.5349 2.92507,6.045987 5.47592,25.346723 3.77095,28.532493 -0.65182,1.21792 -6.84714,4.015 -14.65684,6.6173 -11.46342,3.81978 -14.30112,5.31457 -18.59561,9.79544 -15.12759,15.78419 -35.79848,58.09922 -43.49493,89.0378 -2.39582,9.63085 -3.94897,12.87881 -10.79143,22.56714 -4.39605,6.22443 -11.0198,17.75568 -14.71945,25.625 -23.78698,50.59607 -22.37167,48.2645 -41.17013,67.82311 -32.57695,33.89425 -31.49639,31.58787 -32.21895,68.76841 -0.51072,26.28018 12.48754,46.00597 9.99968,48.08012 -1.4431,1.20312 -16.80764,-15.98878 -16.80764,-15.98878 -3.90529,1.58725 -2.31933,5.54037 -3.90529,1.58725 -2.55446,-6.36713 -2.88049,-18.03101 -2.8565,-34.08725 0.0524,-35.05853 3.47043,-42.18194 38.0867,-79.375 18.23073,-19.58778 21.80005,-24.71566 26.78038,-38.47403 5.54987,-15.33176 9.73128,-23.55983 19.51496,-38.40097 14.99511,-22.74654 13.89384,-20.22121 24.39386,-55.9375 1.7685,-6.01563 8.47003,-21.69038 14.89229,-34.83276 13.46491,-27.55434 16.32952,-31.04287 37.34457,-45.47827 13.92942,-9.56821 15.2941,-11.568331 13.16195,-19.290355 -1.53055,-5.543213 -6.93926,-10.283071 -13.83115,-12.120765 -11.02681,-2.940258 -28.7921,2.46375 -43.4346,13.212334 -7.84563,5.759233 -26.95422,25.728856 -34.15813,35.697316 -3.22944,4.46875 -10.73847,14.875 -16.68674,23.125 -17.49504,24.26488 -30.61508,40.7262 -38.62864,48.4662 -6.8404,6.60689 -19.94941,14.6588 -23.86541,14.6588 -0.87512,0 -1.93346,1.07861 -2.35188,2.39692 -1.63779,5.16022 -6.46146,9.16603 -25.98936,21.58282 -39.19158,24.91989 -51.2504,41.1687 -51.31521,69.14526 -0.0231,9.96483 0.52971,13.93164 2.72563,19.55886 3.67453,9.41628 11.20527,17.79952 18.48787,20.58076 5.18972,1.98198 7.10673,2.05273 19.03956,0.70268 15.41357,-0.0375 28.15794,5.13536 17.6438,6.6926 -13.38882,0.85659 -29.70987,7.29665 -41.81394,3.00559 -20.16065,-7.54306 -31.80609,-34.72975 -26.48246,-61.8243 1.17291,-5.96955 4.06007,-15.70856 6.41592,-21.64224 l 4.28337,-10.78851 -3.38894,-3.56944 c -1.86393,-1.96319 -4.95264,-4.69331 -6.8638,-6.06694 l -3.47485,-2.49749 -5.12214,4.62756 c -11.03483,9.96931 -24.97948,12.30976 -37.95348,6.37007 -7.86862,-3.60238 -10.29524,-6.92009 -15.65177,-21.3992 -4.45022,-12.02935 -7.56702,-12.23435 -18.62607,-34.36616 -11.05858,-22.13085 -14.55424,-18.91135 -26.05945,-51.44498 -3.49324,-9.87795 -9.58815,-17.63105 -18.23058,-24.71287 -6.139672,-5.031 -22.571171,-30.267385 -27.848077,-26.378924 -0.634146,0.467294 -4.996235,1.862814 -9.808735,2.960714 -4.8125,1.09789 -10.120096,2.38633 -11.794659,2.8632 l -3.044658,0.86702 2.946582,-4.13809 c 1.62062,-2.27596 5.363562,-5.603255 8.317649,-7.394004 2.954085,-1.790748 10.424721,-6.299062 10.424721,-6.299062 0,0 -5.875977,-10.891128 -14.817719,-24.425144 -5.852139,-8.857667 -17.328235,-10.792015 -25.739766,-10.354554 -5.460111,0.283966 -6.54028,0.817514 -8.967745,4.429603 -3.495318,5.20106 -0.508364,13.637487 1.414399,22.132642 2.27359,10.04518 5.865694,15.380149 18.153405,40.019449 9.511993,19.07344 9.309665,14.39254 20.323832,26.23762 12.079079,12.99034 12.657492,21.50955 20.6204,33.10933 7.507399,10.93623 9.176329,11.29205 12.235319,21.27737 4.239322,13.83824 9.939852,19.73506 12.373912,36.45805 2.43445,16.72575 11.73367,33.535 13.04992,40.41149 5.31615,27.77295 20.28936,64.60166 31.39347,77.21661 4.4343,5.03761 6.56547,6.29598 15.37928,9.08079 12.4366,3.92945 17.96425,4.21731 27.70268,1.44265 7.51113,-2.14006 19.40398,-1.80708 19.40398,0.54329 0,0.59892 -0.42316,1.08896 -0.94038,1.08896 -0.5172,0 -5.71903,2.8125 -11.55962,6.25 -11.9997,7.06248 -14.73849,7.45378 -30.74048,4.3921 -5.34071,-1.02185 -9.9153,-1.653 -10.16573,-1.40255 -1.1143,1.1143 18.54117,46.91577 25.56896,54.80669 4.29687,4.82462 3.42512,10.95006 3.42512,10.95006 -5.73846,4.43294 -17.35165,5.18304 -21.75995,3.76763 0,0 5.09414,-10.96291 -5.37636,-29.69103 z M 208.1628,220.56965 c 2.10702,-1.77294 5.03703,-4.91732 6.51115,-6.98752 l 2.6802,-3.764 1.28341,-4.10112 c -6.05981,-2.46292 -0.3439,-3.90588 -10.96334,-8.98469 l -5.75293,-3.9778 c -2.77052,-1.91564 -14.33701,2.81146 -14.33701,2.81146 0,0 -4.46784,6.13251 -3.18483,10.37186 1.28358,4.23935 -1.74047,7.39477 -2.12379,7.7781 -0.38333,0.38332 7.61705,2.57725 5.52181,2.57725 -3.52535,0 -3.65714,0.15239 -1.76669,2.04284 6.94711,4.16256 15.86223,7.41829 22.13202,2.23362 z m 47.70701,-4.18031 c 4.8444,-4.84439 4.64506,-8.64173 -0.89134,-16.98015 -3.9564,-5.95878 -5.41761,-7.12055 -11.28009,-8.96854 -5.94327,-1.87345 -6.95216,-1.90574 -8.58316,-0.27474 -1.631,1.631 -8.42106,6.78617 -6.56227,11.51819 3.1466,14.34397 -3.81711,-3.11576 4.40821,8.81196 6.92329,9.99419 16.37601,12.42593 22.90865,5.89328 z m -72.59615,-2.35724 c 0,-0.5561 -0.85289,-2.10297 -1.89531,-3.4375 -1.7575,-2.24999 -1.78837,-2.17646 -0.42437,1.01109 1.47177,3.43936 2.31968,4.3263 2.31968,2.42641 z m -2.54679,-20.81565 c 6.28599,-6.48547 11.08853,-8.37019 18.02603,-7.07412 3.17391,0.59295 5.77076,0.61972 5.77076,0.0595 0,-0.56023 -1.25354,2.50707 -5.65001,-12.02789 -5.87874,-19.43544 -11.30478,-30.61266 -6.35592,-24.64952 6.82173,8.21985 -13.43182,-2.87085 -17.98575,-2.23492 -2.50603,0.34995 -8.64691,5.05298 -12.33018,6.0638 -3.68327,1.01081 -6.90209,1.6326 -7.15294,1.38175 -1.32991,-1.3299 7.92617,-9.97345 13.71111,-12.80376 l 13.57973,-2.01726 2.15604,-20.60656 c 2.32358,-22.20788 -2.26543,-25.31127 -8.86733,-28.72524 -5.38541,-2.78491 -13.28973,-0.95517 -26.99506,5.6358 -14.98844,7.20801 -23.52221,4.58563 -17.00438,23.03988 5.73479,16.2372 12.29004,28.56618 26.09119,56.6868 5.95153,12.12657 15.82947,24.13355 16.53989,25.68043 1.69293,3.68622 1.5203,-3.30516 6.46682,-8.40869 z m 111.12182,-0.72041 c 3.87748,-2.08843 8.92222,-5.49493 11.21052,-7.56999 4.78041,-4.33494 4.77969,-4.37202 -0.52819,-27.18119 -3.62244,-15.56643 -3.68443,-18.36475 -0.65586,-29.6018 4.22676,-15.68278 4.21861,-15.59987 1.53369,-15.59987 -1.32685,0 -5.95405,1.10227 -10.28266,2.44949 -4.32863,1.34721 -8.13907,2.18063 -8.46765,1.85205 -1.47179,-1.47179 9.97347,-11.21142 16.96081,-14.43323 14.49362,-14.09515 18.99846,17.55014 13.52931,31.38169 -3.88655,9.23404 -3.88461,9.48947 0.17354,22.78746 l 3.33016,10.91246 6.35661,-3.41246 c 3.49615,-1.87685 9.93854,-6.97651 14.31643,-11.33257 l 7.95978,-7.92012 -1.30844,10.45902 c -0.84016,6.71584 -10.3283,-17.94638 -13.32229,-32.71904 -3.04161,-15.00771 -3.5311,-14.83642 -8.52391,-34.16011 C 322.43272,81.83676 310.13657,69.465679 304.27251,61.889153 290.98329,44.719121 285.74651,45.785554 279.908,46.880865 269.8648,48.764983 254.35115,60.001466 248.86262,69.366927 l -3.20867,5.475183 3.07235,24.79599 c 3.00775,24.27451 3.18361,25.00225 8.36236,34.60333 l 5.29001,9.80732 -0.1588,17.51798 c -0.0874,9.63487 0.46403,19.99147 1.22528,23.01466 3.03317,12.0458 14.69839,15.29631 28.40354,7.91465 z m -29.27817,-4.65198 c -3.97176,-4.38874 4.8207,-18.70183 11.95895,-19.73648 9.91305,-1.43684 15.10496,0.37911 24.19333,12.81103 3.41801,4.67547 2.68051,4.98478 -1.63706,7.21748 -5.16314,2.66996 -8.87238,3.04799 -9.07142,-1.5304 -0.64261,-14.78122 -18.99336,-11.51209 -21.45909,-2.72387 -1.57211,5.60325 2.61388,9.47854 -0.75398,5.75708 z m -40.54686,-1.4124 c 0,-1.98632 1.07515,-4.93945 2.38922,-6.5625 1.97103,-2.43443 3.55733,-2.95097 9.0625,-2.95097 3.6703,0 8.41554,0.44771 10.54498,0.99491 l 3.87171,0.99491 0.84955,-15.03236 c 0.82469,-14.59246 0.75272,-15.22512 -2.45958,-21.61991 -1.82002,-3.62315 -3.49283,-6.79204 -3.71734,-7.04198 -0.22453,-0.24992 -0.48644,-4.25686 -5.40818,-2.76192 -4.92173,1.49493 -15.71568,10.66869 -16.08924,10.29512 -0.79374,-0.79374 11.47248,-13.79986 15.78759,-16.53546 l 2.95622,-1.8741 -2.09658,-21.48935 c -2.73441,-28.02702 -3.6812,-31.358926 -10.02492,-35.279565 -2.2473,-1.388912 -5.70712,-2.5198 -7.68847,-2.513084 -5.81027,0.0197 -15.86942,5.469447 -21.00556,11.380209 -8.37919,9.6429 -2.48607,15.07288 -2.53522,42.99319 -0.0243,13.75 4.18065,25.01186 4.7478,29.62268 1.02739,8.35237 6.07965,14.05761 9.71209,24.3352 2.38029,6.73477 2.00368,5.41912 4.56731,9.39882 2.56361,3.9797 5.083,7.24074 5.59862,7.24675 0.51563,0.006 0.9375,-1.61425 0.9375,-3.60059 z" id="path4064" inkscape:connector-curvature="0" sodipodi:nodetypes="ssssssssssssscsscssssssscssssssssssssssssssscsssssssssssssssssssscccsscsscssssssssscsscssssssssssssssssscscsscscccscccsccssssccsssssssssssssscssssssssssssssccscsscsssssscsscssscsssssccsssscsscssscsssssssscs"/>
</svg>